<mxfile host="Electron" modified="2024-01-25T14:20:30.808Z" agent="Mozilla/5.0 (X11; Linux x86_64) AppleWebKit/537.36 (KHTML, like Gecko) draw.io/22.1.21 Chrome/120.0.6099.109 Electron/28.1.0 Safari/537.36" etag="QCxVwejCukhfJtU54p6S" version="22.1.21" type="device">
  <diagram id="5lWKEXr3JgzZcVVuhF66" name="Page-1">
    <mxGraphModel dx="925" dy="541" grid="1" gridSize="10" guides="1" tooltips="1" connect="1" arrows="1" fold="1" page="1" pageScale="1" pageWidth="600" pageHeight="400" math="0" shadow="0">
      <root>
        <mxCell id="0" />
        <mxCell id="1" parent="0" />
        <mxCell id="QHwQKuu1JCrrE1N5jjmt-13" value="_" style="whiteSpace=wrap;html=1;aspect=fixed;fontSize=24;fillColor=#FCFFFE;strokeColor=#23445d;" parent="1" vertex="1">
          <mxGeometry x="100" y="20" width="440" height="440" as="geometry" />
        </mxCell>
        <mxCell id="QHwQKuu1JCrrE1N5jjmt-2" value="" style="rounded=0;whiteSpace=wrap;html=1;fillColor=#fff2cc;strokeColor=#d6b656;" parent="1" vertex="1">
          <mxGeometry x="205" y="30" width="210" height="400" as="geometry" />
        </mxCell>
        <mxCell id="QHwQKuu1JCrrE1N5jjmt-3" value="" style="rounded=0;whiteSpace=wrap;html=1;fillColor=#ffe6cc;strokeColor=#d79b00;" parent="1" vertex="1">
          <mxGeometry x="205" y="90" width="210" height="360" as="geometry" />
        </mxCell>
        <mxCell id="QHwQKuu1JCrrE1N5jjmt-4" value="" style="rounded=0;whiteSpace=wrap;html=1;fillColor=#dae8fc;strokeColor=#6c8ebf;" parent="1" vertex="1">
          <mxGeometry x="205" y="210" width="195" height="180" as="geometry" />
        </mxCell>
        <mxCell id="QHwQKuu1JCrrE1N5jjmt-5" value="" style="rounded=0;whiteSpace=wrap;html=1;fillColor=#d5e8d4;strokeColor=#82b366;" parent="1" vertex="1">
          <mxGeometry x="205" y="270" width="175" height="120" as="geometry" />
        </mxCell>
        <mxCell id="QHwQKuu1JCrrE1N5jjmt-6" value="&lt;h1&gt;u-root&lt;/h1&gt;&lt;div&gt;&lt;font style=&quot;font-size: 16px;&quot;&gt;This is our bootloader environment, a Linux userland as initramfs.&lt;/font&gt;&lt;/div&gt;" style="text;html=1;spacing=5;spacingTop=-20;whiteSpace=wrap;overflow=hidden;rounded=0;fontColor=#000000;" parent="1" vertex="1">
          <mxGeometry x="208" y="271" width="162" height="109" as="geometry" />
        </mxCell>
        <mxCell id="QHwQKuu1JCrrE1N5jjmt-7" value="&lt;font style=&quot;font-size: 24px;&quot;&gt;&lt;b&gt;Linux&lt;/b&gt;&lt;/font&gt;" style="text;html=1;align=center;verticalAlign=middle;whiteSpace=wrap;rounded=0;fontColor=#000000;" parent="1" vertex="1">
          <mxGeometry x="206" y="226" width="80" height="30" as="geometry" />
        </mxCell>
        <mxCell id="QHwQKuu1JCrrE1N5jjmt-8" value="&lt;font style=&quot;font-size: 24px;&quot;&gt;&lt;b&gt;oreboot main&lt;br&gt;&lt;/b&gt;&lt;/font&gt;" style="text;html=1;strokeColor=none;fillColor=none;align=center;verticalAlign=middle;whiteSpace=wrap;rounded=0;fontColor=#000000;" parent="1" vertex="1">
          <mxGeometry x="206" y="105" width="167" height="30" as="geometry" />
        </mxCell>
        <mxCell id="QHwQKuu1JCrrE1N5jjmt-9" value="&lt;font style=&quot;font-size: 24px;&quot;&gt;&lt;b&gt;oreboot bt0&lt;br&gt;&lt;/b&gt;&lt;/font&gt;" style="text;html=1;align=left;verticalAlign=middle;whiteSpace=wrap;rounded=0;fontColor=#000000;" parent="1" vertex="1">
          <mxGeometry x="211" y="44" width="167" height="30" as="geometry" />
        </mxCell>
        <mxCell id="QHwQKuu1JCrrE1N5jjmt-10" value="" style="shape=curlyBracket;whiteSpace=wrap;html=1;rounded=1;fontSize=24;fillColor=#1A1A1A;strokeColor=#1C1C1C;" parent="1" vertex="1">
          <mxGeometry x="185" y="210" width="20" height="240" as="geometry" />
        </mxCell>
        <mxCell id="QHwQKuu1JCrrE1N5jjmt-11" value="payload" style="text;html=1;strokeColor=none;fillColor=none;align=center;verticalAlign=middle;whiteSpace=wrap;rounded=0;fontSize=20;rotation=0;fontColor=#000000;" parent="1" vertex="1">
          <mxGeometry x="104" y="315" width="81" height="30" as="geometry" />
        </mxCell>
        <mxCell id="ACgtkd4QmDNk3ubJpnxe-1" value="" style="rounded=0;whiteSpace=wrap;html=1;fillColor=#d0cee2;strokeColor=#56517e;" parent="1" vertex="1">
          <mxGeometry x="205" y="150" width="195" height="60" as="geometry" />
        </mxCell>
        <mxCell id="ACgtkd4QmDNk3ubJpnxe-2" value="&lt;font style=&quot;font-size: 24px;&quot;&gt;&lt;b&gt;oreboot dtfs&lt;br&gt;&lt;/b&gt;&lt;/font&gt;" style="text;html=1;align=center;verticalAlign=middle;whiteSpace=wrap;rounded=0;fontColor=#000000;" parent="1" vertex="1">
          <mxGeometry x="206" y="164" width="159" height="30" as="geometry" />
        </mxCell>
        <mxCell id="ACgtkd4QmDNk3ubJpnxe-3" value="" style="shape=curlyBracket;whiteSpace=wrap;html=1;rounded=1;flipH=1;fillColor=#1A1A1A;strokeColor=#1C1C1C;" parent="1" vertex="1">
          <mxGeometry x="415" y="90" width="20" height="360" as="geometry" />
        </mxCell>
        <mxCell id="ACgtkd4QmDNk3ubJpnxe-5" value="DRAM" style="text;html=1;strokeColor=none;fillColor=none;align=center;verticalAlign=middle;whiteSpace=wrap;rounded=0;fontSize=20;fontStyle=0;rotation=0;fontColor=#000000;" parent="1" vertex="1">
          <mxGeometry x="435" y="253.75" width="65" height="32.5" as="geometry" />
        </mxCell>
        <mxCell id="ACgtkd4QmDNk3ubJpnxe-7" value="" style="shape=curlyBracket;whiteSpace=wrap;html=1;rounded=1;flipH=1;fontSize=18;fillColor=#1A1A1A;strokeColor=#1C1C1C;" parent="1" vertex="1">
          <mxGeometry x="415" y="30" width="20" height="60" as="geometry" />
        </mxCell>
        <mxCell id="ACgtkd4QmDNk3ubJpnxe-8" value="XIP/SRAM" style="text;html=1;strokeColor=none;fillColor=none;align=center;verticalAlign=middle;whiteSpace=wrap;rounded=0;fontSize=20;rotation=0;fontColor=#000000;" parent="1" vertex="1">
          <mxGeometry x="435" y="42" width="95" height="36" as="geometry" />
        </mxCell>
        <mxCell id="1G0m9fozxYErye_NOQ-Y-1" value="" style="shape=image;verticalLabelPosition=bottom;labelBackgroundColor=default;verticalAlign=top;aspect=fixed;imageAspect=0;image=https://www.linuxboot.org/images/logo.png;" parent="1" vertex="1">
          <mxGeometry x="104" y="217.5" width="84" height="84" as="geometry" />
        </mxCell>
        <mxCell id="1G0m9fozxYErye_NOQ-Y-2" value="" style="shape=image;verticalLabelPosition=bottom;labelBackgroundColor=default;verticalAlign=top;aspect=fixed;imageAspect=0;image=https://github.com/oreboot/oreboot/raw/main/Documentation/img/logo-small.png;" parent="1" vertex="1">
          <mxGeometry x="117.46000000000001" y="30" width="67.54" height="77" as="geometry" />
        </mxCell>
        <mxCell id="1G0m9fozxYErye_NOQ-Y-3" value="" style="endArrow=none;dashed=1;html=1;rounded=0;fontSize=20;" parent="1" edge="1">
          <mxGeometry width="50" height="50" relative="1" as="geometry">
            <mxPoint x="100" y="210" as="sourcePoint" />
            <mxPoint x="540" y="210" as="targetPoint" />
          </mxGeometry>
        </mxCell>
        <mxCell id="1G0m9fozxYErye_NOQ-Y-5" value="" style="rounded=0;whiteSpace=wrap;html=1;fillColor=#fad9d5;strokeColor=#ae4132;" parent="1" vertex="1">
          <mxGeometry x="205" y="390" width="195" height="60" as="geometry" />
        </mxCell>
        <mxCell id="1G0m9fozxYErye_NOQ-Y-6" value="&lt;font style=&quot;font-size: 24px;&quot;&gt;&lt;b&gt;dtb for Linux&lt;br&gt;&lt;/b&gt;&lt;/font&gt;" style="text;html=1;strokeColor=none;fillColor=none;align=center;verticalAlign=middle;whiteSpace=wrap;rounded=0;fontColor=#000000;" parent="1" vertex="1">
          <mxGeometry x="206" y="405" width="159" height="30" as="geometry" />
        </mxCell>
        <mxCell id="1G0m9fozxYErye_NOQ-Y-7" value="" style="shape=curlyBracket;whiteSpace=wrap;html=1;rounded=1;fontSize=20;fillColor=#1A1A1A;strokeColor=#1C1C1C;" parent="1" vertex="1">
          <mxGeometry x="185" y="30" width="20" height="180" as="geometry" />
        </mxCell>
        <mxCell id="1G0m9fozxYErye_NOQ-Y-8" value="initialize" style="text;html=1;strokeColor=none;fillColor=none;align=center;verticalAlign=middle;whiteSpace=wrap;rounded=0;fontSize=20;fontColor=#000000;" parent="1" vertex="1">
          <mxGeometry x="108" y="105" width="80" height="30" as="geometry" />
        </mxCell>
        <mxCell id="d5psoZN__Z89esgqziDA-1" value="" style="shape=image;verticalLabelPosition=bottom;labelBackgroundColor=default;verticalAlign=top;aspect=fixed;imageAspect=0;image=https://u-root.org/img/u-root-logo.png;" parent="1" vertex="1">
          <mxGeometry x="105.4" y="345" width="97.94" height="105" as="geometry" />
        </mxCell>
      </root>
    </mxGraphModel>
  </diagram>
</mxfile>
